<?xml version="1.0" encoding="UTF-8" standalone="no"?>
<!DOCTYPE svg PUBLIC "-//W3C//DTD SVG 1.1//EN"
 "http://www.w3.org/Graphics/SVG/1.1/DTD/svg11.dtd">
<!-- Generated by graphviz version 2.43.0 (0)
 -->
<!-- Title: %3 Pages: 1 -->
<svg width="600pt" height="188pt"
 viewBox="0.00 0.00 599.94 188.00" xmlns="http://www.w3.org/2000/svg" xmlns:xlink="http://www.w3.org/1999/xlink">
<g id="graph0" class="graph" transform="scale(1 1) rotate(0) translate(4 184)">
<title>%3</title>
<polygon fill="white" stroke="transparent" points="-4,4 -4,-184 595.94,-184 595.94,4 -4,4"/>
<!-- draw_pipeline -->
<g id="node1" class="node">
<title>draw_pipeline</title>
<ellipse fill="none" stroke="black" cx="61.09" cy="-162" rx="61.19" ry="18"/>
<text text-anchor="middle" x="61.09" y="-158.3" font-family="Times,serif" font-size="14.00">draw_pipeline</text>
</g>
<!-- longevity_map_text -->
<g id="node2" class="node">
<title>longevity_map_text</title>
<ellipse fill="none" stroke="black" cx="451.09" cy="-90" rx="81.49" ry="18"/>
<text text-anchor="middle" x="451.09" y="-86.3" font-family="Times,serif" font-size="14.00">longevity_map_text</text>
</g>
<!-- index_modules -->
<g id="node7" class="node">
<title>index_modules</title>
<ellipse fill="none" stroke="black" cx="299.09" cy="-18" rx="64.99" ry="18"/>
<text text-anchor="middle" x="299.09" y="-14.3" font-family="Times,serif" font-size="14.00">index_modules</text>
</g>
<!-- longevity_map_text&#45;&gt;index_modules -->
<g id="edge1" class="edge">
<title>longevity_map_text&#45;&gt;index_modules</title>
<path fill="none" stroke="black" d="M417.36,-73.46C394.66,-63.01 364.58,-49.16 340.44,-38.04"/>
<polygon fill="black" stroke="black" points="341.72,-34.78 331.17,-33.77 338.79,-41.14 341.72,-34.78"/>
</g>
<!-- module_qa -->
<g id="node8" class="node">
<title>module_qa</title>
<ellipse fill="none" stroke="black" cx="451.09" cy="-18" rx="50.09" ry="18"/>
<text text-anchor="middle" x="451.09" y="-14.3" font-family="Times,serif" font-size="14.00">module_qa</text>
</g>
<!-- longevity_map_text&#45;&gt;module_qa -->
<g id="edge2" class="edge">
<title>longevity_map_text&#45;&gt;module_qa</title>
<path fill="none" stroke="black" d="M451.09,-71.7C451.09,-63.98 451.09,-54.71 451.09,-46.11"/>
<polygon fill="black" stroke="black" points="454.59,-46.1 451.09,-36.1 447.59,-46.1 454.59,-46.1"/>
</g>
<!-- data/clinvar/ncbi_clinvar_only.sqlite3.dvc -->
<g id="node3" class="node">
<title>data/clinvar/ncbi_clinvar_only.sqlite3.dvc</title>
<ellipse fill="none" stroke="black" cx="299.09" cy="-162" rx="159.47" ry="18"/>
<text text-anchor="middle" x="299.09" y="-158.3" font-family="Times,serif" font-size="14.00">data/clinvar/ncbi_clinvar_only.sqlite3.dvc</text>
</g>
<!-- clinvar_text -->
<g id="node6" class="node">
<title>clinvar_text</title>
<ellipse fill="none" stroke="black" cx="299.09" cy="-90" rx="52.79" ry="18"/>
<text text-anchor="middle" x="299.09" y="-86.3" font-family="Times,serif" font-size="14.00">clinvar_text</text>
</g>
<!-- data/clinvar/ncbi_clinvar_only.sqlite3.dvc&#45;&gt;clinvar_text -->
<g id="edge3" class="edge">
<title>data/clinvar/ncbi_clinvar_only.sqlite3.dvc&#45;&gt;clinvar_text</title>
<path fill="none" stroke="black" d="M299.09,-143.7C299.09,-135.98 299.09,-126.71 299.09,-118.11"/>
<polygon fill="black" stroke="black" points="302.59,-118.1 299.09,-108.1 295.59,-118.1 302.59,-118.1"/>
</g>
<!-- index_papers -->
<g id="node4" class="node">
<title>index_papers</title>
<ellipse fill="none" stroke="black" cx="534.09" cy="-162" rx="57.69" ry="18"/>
<text text-anchor="middle" x="534.09" y="-158.3" font-family="Times,serif" font-size="14.00">index_papers</text>
</g>
<!-- coronary_text -->
<g id="node5" class="node">
<title>coronary_text</title>
<ellipse fill="none" stroke="black" cx="169.09" cy="-90" rx="59.59" ry="18"/>
<text text-anchor="middle" x="169.09" y="-86.3" font-family="Times,serif" font-size="14.00">coronary_text</text>
</g>
<!-- coronary_text&#45;&gt;index_modules -->
<g id="edge4" class="edge">
<title>coronary_text&#45;&gt;index_modules</title>
<path fill="none" stroke="black" d="M196.98,-73.98C215.96,-63.76 241.28,-50.13 261.96,-38.99"/>
<polygon fill="black" stroke="black" points="263.66,-42.06 270.8,-34.23 260.34,-35.89 263.66,-42.06"/>
</g>
<!-- clinvar_text&#45;&gt;index_modules -->
<g id="edge5" class="edge">
<title>clinvar_text&#45;&gt;index_modules</title>
<path fill="none" stroke="black" d="M299.09,-71.7C299.09,-63.98 299.09,-54.71 299.09,-46.11"/>
<polygon fill="black" stroke="black" points="302.59,-46.1 299.09,-36.1 295.59,-46.1 302.59,-46.1"/>
</g>
</g>
</svg>
