<?xml version="1.0" encoding="UTF-8" standalone="no"?>
<!DOCTYPE svg PUBLIC "-//W3C//DTD SVG 1.1//EN"
 "http://www.w3.org/Graphics/SVG/1.1/DTD/svg11.dtd">
<!-- Generated by graphviz version 2.43.0 (0)
 -->
<!-- Title: %3 Pages: 1 -->
<svg width="811pt" height="188pt"
 viewBox="0.00 0.00 811.34 188.00" xmlns="http://www.w3.org/2000/svg" xmlns:xlink="http://www.w3.org/1999/xlink">
<g id="graph0" class="graph" transform="scale(1 1) rotate(0) translate(4 184)">
<title>%3</title>
<polygon fill="white" stroke="transparent" points="-4,4 -4,-184 807.34,-184 807.34,4 -4,4"/>
<!-- longevity_map_text -->
<g id="node1" class="node">
<title>longevity_map_text</title>
<ellipse fill="none" stroke="black" cx="81.24" cy="-90" rx="81.49" ry="18"/>
<text text-anchor="middle" x="81.24" y="-86.3" font-family="Times,serif" font-size="14.00">longevity_map_text</text>
</g>
<!-- module_qa -->
<g id="node4" class="node">
<title>module_qa</title>
<ellipse fill="none" stroke="black" cx="81.24" cy="-18" rx="50.09" ry="18"/>
<text text-anchor="middle" x="81.24" y="-14.3" font-family="Times,serif" font-size="14.00">module_qa</text>
</g>
<!-- longevity_map_text&#45;&gt;module_qa -->
<g id="edge1" class="edge">
<title>longevity_map_text&#45;&gt;module_qa</title>
<path fill="none" stroke="black" d="M81.24,-71.7C81.24,-63.98 81.24,-54.71 81.24,-46.11"/>
<polygon fill="black" stroke="black" points="84.74,-46.1 81.24,-36.1 77.74,-46.1 84.74,-46.1"/>
</g>
<!-- index_modules -->
<g id="node5" class="node">
<title>index_modules</title>
<ellipse fill="none" stroke="black" cx="240.24" cy="-18" rx="64.99" ry="18"/>
<text text-anchor="middle" x="240.24" y="-14.3" font-family="Times,serif" font-size="14.00">index_modules</text>
</g>
<!-- longevity_map_text&#45;&gt;index_modules -->
<g id="edge2" class="edge">
<title>longevity_map_text&#45;&gt;index_modules</title>
<path fill="none" stroke="black" d="M116.14,-73.64C140.13,-63.08 172.14,-48.98 197.64,-37.76"/>
<polygon fill="black" stroke="black" points="199.32,-40.84 207.06,-33.61 196.5,-34.43 199.32,-40.84"/>
</g>
<!-- coronary_text -->
<g id="node2" class="node">
<title>coronary_text</title>
<ellipse fill="none" stroke="black" cx="240.24" cy="-90" rx="59.59" ry="18"/>
<text text-anchor="middle" x="240.24" y="-86.3" font-family="Times,serif" font-size="14.00">coronary_text</text>
</g>
<!-- coronary_text&#45;&gt;index_modules -->
<g id="edge3" class="edge">
<title>coronary_text&#45;&gt;index_modules</title>
<path fill="none" stroke="black" d="M240.24,-71.7C240.24,-63.98 240.24,-54.71 240.24,-46.11"/>
<polygon fill="black" stroke="black" points="243.74,-46.1 240.24,-36.1 236.74,-46.1 243.74,-46.1"/>
</g>
<!-- clinvar_text -->
<g id="node3" class="node">
<title>clinvar_text</title>
<ellipse fill="none" stroke="black" cx="370.24" cy="-90" rx="52.79" ry="18"/>
<text text-anchor="middle" x="370.24" y="-86.3" font-family="Times,serif" font-size="14.00">clinvar_text</text>
</g>
<!-- clinvar_text&#45;&gt;index_modules -->
<g id="edge4" class="edge">
<title>clinvar_text&#45;&gt;index_modules</title>
<path fill="none" stroke="black" d="M343.31,-74.5C324.26,-64.24 298.48,-50.36 277.47,-39.05"/>
<polygon fill="black" stroke="black" points="278.96,-35.87 268.49,-34.21 275.64,-42.03 278.96,-35.87"/>
</g>
<!-- index_papers -->
<g id="node6" class="node">
<title>index_papers</title>
<ellipse fill="none" stroke="black" cx="605.24" cy="-162" rx="57.69" ry="18"/>
<text text-anchor="middle" x="605.24" y="-158.3" font-family="Times,serif" font-size="14.00">index_papers</text>
</g>
<!-- draw_pipeline -->
<g id="node7" class="node">
<title>draw_pipeline</title>
<ellipse fill="none" stroke="black" cx="742.24" cy="-162" rx="61.19" ry="18"/>
<text text-anchor="middle" x="742.24" y="-158.3" font-family="Times,serif" font-size="14.00">draw_pipeline</text>
</g>
<!-- data/clinvar/ncbi_clinvar_only.sqlite3.dvc -->
<g id="node8" class="node">
<title>data/clinvar/ncbi_clinvar_only.sqlite3.dvc</title>
<ellipse fill="none" stroke="black" cx="370.24" cy="-162" rx="159.47" ry="18"/>
<text text-anchor="middle" x="370.24" y="-158.3" font-family="Times,serif" font-size="14.00">data/clinvar/ncbi_clinvar_only.sqlite3.dvc</text>
</g>
<!-- data/clinvar/ncbi_clinvar_only.sqlite3.dvc&#45;&gt;clinvar_text -->
<g id="edge5" class="edge">
<title>data/clinvar/ncbi_clinvar_only.sqlite3.dvc&#45;&gt;clinvar_text</title>
<path fill="none" stroke="black" d="M370.24,-143.7C370.24,-135.98 370.24,-126.71 370.24,-118.11"/>
<polygon fill="black" stroke="black" points="373.74,-118.1 370.24,-108.1 366.74,-118.1 373.74,-118.1"/>
</g>
</g>
</svg>
